# xmcd
#
# Track frame offsets: 
#        150
#        29912
#        58641
#        84584
#        117783
#        147326
#        175627
#        200197
#        232705
#        278788
#
# Disc length: 4076 seconds
#
# Revision: 7
# Processed by: cddbd v1.5.2PL0 Copyright (c) Steve Scherf et al.
# Submitted via: ExactAudioCopy v0.95b4
#
DISCID=8b0fea0a
DTITLE=Various Artist - Hot Tracks - 15th Anniversary Collectors Edition (Dis
DTITLE=c 12)
DYEAR=1997
DGENRE=House
TTITLE0=Ministry - Work For Love [Chris Cox Mix]
TTITLE1=The Emotions - Best of My Love [Chris Cox Mix]
TTITLE2=Cheryl Lynn - Got To Be Real [Mark Andrus Mix]
TTITLE3=Abba - Gimme! Gimme! Gimme! (A Man After Midnight) [Michael Le
TTITLE3=wis and Bob Logan Mix]
TTITLE4=Kool and The Gang - Celebration [Glenn Cattanach Mix]
TTITLE5=Donna Summer - Bad Girls [Stephen L. Freeman Mix]
TTITLE6=Laura Branigan - Gloria In 3D [Tim Detwiler Mix]
TTITLE7=Machine - There But For The Grace Of God Go I [Glenn Cattanach
TTITLE7=Mix]
TTITLE8=Revanche - Music Man [Malavasi and Petrus Mix]
TTITLE9=Amii Stewart - Knock On Wood [Cameron Paul Mix]
EXTD=YEAR: 1997
EXTT0=
EXTT1=
EXTT2=
EXTT3=
EXTT4=
EXTT5=
EXTT6=
EXTT7=
EXTT8=
EXTT9=
PLAYORDER=
